<svg width="226" height="67" viewBox="0 0 226 67" fill="none" xmlns="http://www.w3.org/2000/svg">
<g id="Layer_2" clip-path="url(#clip0_13_115)">
<g id="Ebene 1">
<path id="Vector" d="M63.3025 57.3469V63.5678C63.3025 63.9254 63.3025 64.4974 63.373 64.8549H62.6681L62.5976 64.2114C62.3861 64.6404 61.9631 64.9264 61.5402 64.9264C60.6943 64.9264 60.0598 63.9969 60.0598 62.2808C60.0598 60.4216 60.8352 59.5636 61.6107 59.5636C62.0336 59.5636 62.3861 59.7781 62.5271 60.2071V57.4899H63.3025V57.3469ZM62.5271 61.5657V61.2082C62.4566 60.6361 62.1746 60.2071 61.7516 60.2071C61.0467 60.2071 60.8352 61.1367 60.8352 62.2093C60.8352 63.2818 61.1172 64.2114 61.6812 64.2114C61.9631 64.2114 62.3156 64.0684 62.4566 63.3533V62.9958L62.5271 61.5657Z" fill="#181819"/>
<path id="Vector_2" d="M65.0649 62.2806C65.0649 63.8537 65.6993 64.2113 66.2633 64.2113C66.5453 64.2113 66.8272 64.1398 67.1092 63.9967L67.2502 64.6403C66.8977 64.7833 66.5453 64.9263 66.1223 64.8548C64.8534 64.8548 64.219 63.8537 64.219 62.2091C64.219 60.5645 64.9239 59.4919 65.9108 59.4919C66.8977 59.4919 67.3912 60.636 67.3912 61.7801V62.2806H65.0649ZM66.6158 61.6371C66.6158 60.5645 66.2633 60.1355 65.8403 60.1355C65.2764 60.1355 65.0649 60.922 64.9944 61.6371H66.6158Z" fill="#181819"/>
<path id="Vector_3" d="M68.3076 60.922C68.3076 60.493 68.2371 59.9925 68.2371 59.5635H68.942L69.0125 60.4215C69.1535 59.921 69.6469 59.5634 70.1404 59.4919H70.2813V60.35H70.1404C69.5764 60.4215 69.1535 60.8505 69.1535 61.4226V64.7833H68.3076V60.922Z" fill="#181819"/>
<path id="Vector_4" d="M72.6782 57.6328C73.1012 57.5613 73.4536 57.4898 73.8766 57.4898C74.4405 57.4183 75.0045 57.6328 75.4274 57.9903C75.7799 58.3478 75.9209 58.7769 75.9209 59.2059C75.9209 59.9209 75.4979 60.5645 74.793 60.779C75.6389 60.9935 76.2029 61.7801 76.1324 62.6381C76.1324 63.1387 75.9914 63.6392 75.6389 64.0682C75.1455 64.5687 74.4405 64.7833 73.7356 64.7118C73.3832 64.7118 73.0307 64.7118 72.6782 64.6403V57.6328ZM73.5241 60.636H73.8766C74.5815 60.636 75.075 60.0639 75.1455 59.4204V59.3489C75.216 58.7769 74.793 58.2048 74.2291 58.1333H73.9471C73.8061 58.1333 73.6651 58.1333 73.5241 58.2048V60.636ZM73.5241 64.1397C73.6651 64.1397 73.8061 64.2112 73.9471 64.2112C74.652 64.2827 75.2865 63.7107 75.357 62.9956V62.7811C75.357 61.9946 74.793 61.351 74.0176 61.2795H73.5946L73.5241 64.1397Z" fill="#181819"/>
<path id="Vector_5" d="M79.093 64.7833L79.0225 64.2112C78.8111 64.5688 78.4586 64.8548 78.0356 64.8548C77.3307 64.7833 76.7668 64.2112 76.8373 63.4247V63.3532C76.8373 62.0661 77.8947 61.4941 79.0225 61.4225V61.2795C79.0225 60.5645 78.8816 60.064 78.1766 60.064C77.8947 60.064 77.5422 60.1355 77.3307 60.35L77.1192 59.7779C77.4717 59.5634 77.8947 59.4204 78.3176 59.4204C79.375 59.4204 79.798 60.1355 79.798 61.2795V63.6392C79.798 64.0682 79.798 64.4257 79.8685 64.8548L79.093 64.7833ZM79.0225 62.0661C78.5996 62.0661 77.6127 62.1376 77.6127 63.2817C77.6127 63.9967 77.9651 64.2112 78.2471 64.2112C78.5291 64.2112 78.952 63.9252 79.0225 63.4247V62.0661Z" fill="#181819"/>
<path id="Vector_6" d="M84.0273 57.3469V63.5678C84.0273 63.9254 84.0273 64.4974 84.0978 64.8549H83.3929L83.3224 64.2114C83.1109 64.6404 82.688 64.9264 82.265 64.9264C81.4191 64.9264 80.7847 63.9969 80.7847 62.2808C80.7847 60.4216 81.5601 59.5636 82.3355 59.5636C82.7585 59.5636 83.1109 59.7781 83.2519 60.2071V57.4899H84.0273V57.3469ZM83.2519 61.5657V61.2082C83.1814 60.6361 82.8995 60.2071 82.4765 60.2071C81.7716 60.2071 81.5601 61.1367 81.5601 62.2093C81.5601 63.2818 81.8421 64.2114 82.406 64.2114C82.688 64.2114 83.0404 64.0684 83.1814 63.3533V62.9958L83.2519 61.5657Z" fill="#181819"/>
<path id="Vector_7" d="M85.7898 62.2806C85.7898 63.8537 86.4242 64.2113 86.9881 64.2113C87.2701 64.2113 87.5521 64.1398 87.8341 63.9967L87.975 64.6403C87.6226 64.7833 87.2701 64.9263 86.8472 64.8548C85.5783 64.8548 84.9438 63.8537 84.9438 62.2091C84.9438 60.5645 85.6488 59.4919 86.6357 59.4919C87.6226 59.4919 88.116 60.636 88.116 61.7801V62.2806H85.7898ZM87.4111 61.6371C87.4111 60.5645 87.0586 60.1355 86.6357 60.1355C86.0717 60.1355 85.8603 60.922 85.7898 61.6371H87.4111Z" fill="#181819"/>
<path id="Vector_8" d="M89.0324 60.922C89.0324 60.35 89.0324 59.9925 88.9619 59.5635H89.6668L89.7373 60.207C89.9488 59.778 90.4423 59.4919 90.9357 59.4919C91.6406 59.4919 92.2046 60.064 92.2046 61.2796V64.7833H91.3587V61.4226C91.3587 60.779 91.2177 60.207 90.6537 60.207C90.3013 60.207 90.0193 60.493 89.8783 61.0651V64.8548H89.0324V60.922Z" fill="#181819"/>
<path id="Vector_9" d="M95.4473 61.6372V62.2808H93.1211V61.6372H95.4473Z" fill="#181819"/>
<path id="Vector_10" d="M97.2097 64.7832L95.7998 57.4897H96.6457L97.2802 60.9935C97.4211 61.923 97.5621 62.7096 97.6326 63.6392H97.7031C97.7736 62.7096 97.9851 61.923 98.1261 60.9935L98.7605 57.4897H99.4654L100.1 60.922C100.241 61.78 100.382 62.6381 100.523 63.6392H100.593C100.734 62.5666 100.875 61.78 100.946 60.9935L101.51 57.5612H102.285L100.875 64.8547H100.1L99.3949 61.351C99.254 60.5645 99.113 59.7779 99.0425 58.9913C98.972 59.7779 98.831 60.5645 98.6195 61.4225L97.9146 64.9262L97.2097 64.7832Z" fill="#181819"/>
<path id="Vector_11" d="M105.951 63.3532C105.951 63.9253 105.951 64.3543 106.021 64.7833H105.316L105.246 64.2113C105.034 64.5688 104.611 64.8548 104.118 64.8548C103.202 64.8548 102.849 64.1398 102.849 62.8527V59.5635H103.625V62.7097C103.625 63.5677 103.766 64.1398 104.329 64.1398C104.682 64.0683 104.964 63.7823 105.034 63.4247C105.034 63.2817 105.105 63.1387 105.105 62.9242V59.492H105.951V63.3532ZM103.131 58.2049C103.131 57.9189 103.343 57.7043 103.554 57.7043C103.836 57.7043 104.048 57.9189 104.048 58.2049C104.048 58.4909 103.836 58.7054 103.554 58.7054C103.343 58.7054 103.131 58.4909 103.131 58.2049ZM104.752 58.2049C104.752 57.9189 104.964 57.7043 105.175 57.7043C105.457 57.7043 105.669 57.9189 105.669 58.2049C105.669 58.4909 105.457 58.7054 105.175 58.7054C104.964 58.7054 104.752 58.4909 104.752 58.2049Z" fill="#181819"/>
<path id="Vector_12" d="M107.079 60.922C107.079 60.493 107.079 59.9925 107.008 59.5635H107.713L107.783 60.4215C107.924 59.921 108.347 59.5634 108.841 59.4919H108.982V60.35H108.841C108.277 60.4215 107.854 60.8505 107.854 61.4226V64.7833H107.008L107.079 60.922Z" fill="#181819"/>
<path id="Vector_13" d="M110.956 58.2048V59.5634H111.943V60.207H110.956V63.2817C110.956 63.9967 111.167 64.1397 111.52 64.1397H111.872V64.7833C111.661 64.8548 111.449 64.8548 111.238 64.8548C110.956 64.8548 110.674 64.7833 110.462 64.5688C110.18 64.2112 110.11 63.7107 110.18 63.2817V60.207H109.546V59.5634H110.18V58.4193L110.956 58.2048Z" fill="#181819"/>
<path id="Vector_14" d="M113.635 58.2048V59.5634H114.621V60.207H113.635V63.2817C113.635 63.9967 113.846 64.1397 114.198 64.1397H114.551L114.621 64.7833C114.41 64.8548 114.198 64.8548 113.987 64.8548C113.705 64.8548 113.423 64.7833 113.212 64.5688C112.93 64.2112 112.859 63.7107 112.93 63.2817V60.207H112.295V59.5634H112.93V58.4193L113.635 58.2048Z" fill="#181819"/>
<path id="Vector_15" d="M115.89 62.2806C115.89 63.8537 116.525 64.2113 117.089 64.2113C117.371 64.2113 117.652 64.1398 117.934 63.9967L118.075 64.6403C117.723 64.7833 117.371 64.9263 116.948 64.8548C115.749 64.8548 115.115 63.8537 115.115 62.2091C115.115 60.5645 115.82 59.4919 116.877 59.4919C117.934 59.4919 118.357 60.636 118.357 61.7801V62.2806H115.89ZM117.441 61.6371C117.441 60.5645 117.089 60.1355 116.666 60.1355C116.102 60.1355 115.89 60.922 115.82 61.6371H117.441Z" fill="#181819"/>
<path id="Vector_16" d="M119.133 60.922C119.133 60.35 119.062 59.9925 119.062 59.5635H119.767L119.838 60.207C120.049 59.778 120.472 59.4919 120.966 59.4919C121.459 59.4919 121.882 59.778 122.023 60.2785C122.164 60.064 122.305 59.8495 122.517 59.7065C122.728 59.5635 122.94 59.4919 123.222 59.4919C123.927 59.4919 124.42 59.9925 124.42 61.3511V64.7833H123.645V61.4941C123.645 60.779 123.574 60.1355 122.94 60.1355C122.587 60.1355 122.305 60.4215 122.164 60.922C122.164 61.065 122.164 61.2081 122.094 61.4226V64.7833H121.318V61.3511C121.318 60.779 121.248 60.1355 120.613 60.1355C120.261 60.1355 119.979 60.4215 119.838 60.9935C119.838 61.1366 119.838 61.2796 119.767 61.4226V64.7118H119.133V60.922Z" fill="#181819"/>
<path id="Vector_17" d="M125.689 64.7834C125.689 64.4974 125.759 63.9253 125.759 63.4963V57.2754H126.605V60.1356C126.817 59.7066 127.24 59.4205 127.663 59.4205C128.438 59.4205 129.072 60.3501 129.072 62.0662C129.072 63.9253 128.297 64.7834 127.522 64.7834C127.028 64.7834 126.605 64.4974 126.535 63.9968L126.464 64.7119L125.689 64.7834ZM126.535 62.9243V63.2818C126.746 64.0683 127.099 64.2114 127.31 64.2114C127.944 64.2114 128.226 63.2818 128.226 62.2092C128.226 61.1367 128.015 60.2071 127.31 60.2071C126.958 60.2071 126.605 60.7076 126.535 61.1367V62.9243Z" fill="#181819"/>
<path id="Vector_18" d="M130.553 62.2806C130.553 63.8537 131.187 64.2113 131.751 64.2113C132.033 64.2113 132.315 64.1398 132.597 63.9967L132.738 64.6403C132.386 64.7833 132.033 64.9263 131.61 64.8548C130.341 64.8548 129.777 63.8537 129.777 62.2091C129.777 60.5645 130.482 59.4919 131.469 59.4919C132.456 59.4919 132.95 60.636 132.95 61.7801V62.2806H130.553ZM132.174 61.6371C132.174 60.5645 131.822 60.1355 131.399 60.1355C130.835 60.1355 130.623 60.922 130.553 61.6371H132.174Z" fill="#181819"/>
<path id="Vector_19" d="M133.795 60.922C133.795 60.493 133.795 59.9925 133.725 59.5635H134.43L134.5 60.4215C134.641 59.921 135.064 59.5634 135.558 59.4919H135.699V60.35H135.558C134.994 60.4215 134.571 60.8505 134.571 61.4226V64.7833H133.725L133.795 60.922Z" fill="#181819"/>
<path id="Vector_20" d="M139.435 59.5635C139.435 59.921 139.364 60.4215 139.364 61.2081V64.1398C139.364 65.4984 139.223 65.9989 138.871 66.4279C138.518 66.7855 138.025 67 137.532 67C137.109 67 136.756 66.9285 136.404 66.714L136.615 66.0704C136.897 66.2134 137.25 66.2849 137.602 66.2849C138.236 66.2849 138.659 65.8559 138.659 64.7118V64.2113C138.518 64.6403 138.095 64.8548 137.672 64.8548C136.756 64.8548 136.192 63.7823 136.192 62.2807C136.192 60.35 137.038 59.5635 137.813 59.5635C138.236 59.5635 138.659 59.8495 138.8 60.2785L138.871 59.7065L139.435 59.5635ZM138.589 61.3511C138.589 61.2081 138.589 61.0651 138.518 60.9936C138.448 60.636 138.236 60.207 137.743 60.207C137.179 60.207 136.827 60.9936 136.827 62.1376C136.827 63.4962 137.25 64.0683 137.743 64.0683C137.954 64.0683 138.307 63.9253 138.448 63.3532C138.518 63.2102 138.518 63.0672 138.518 62.8527L138.589 61.3511Z" fill="#181819"/>
<path id="Vector_21" d="M141.409 58.2049C141.409 58.4909 141.268 58.7054 140.986 58.7769C140.704 58.7769 140.492 58.6339 140.422 58.3479V58.2049C140.422 57.9189 140.563 57.7043 140.845 57.7043H140.915C141.197 57.7043 141.409 57.9189 141.409 58.2049ZM140.563 64.7833V59.5635H141.409V64.7833H140.563Z" fill="#181819"/>
<path id="Vector_22" d="M142.396 63.9253C142.607 64.0683 142.96 64.2113 143.241 64.2113C143.664 64.2113 143.946 63.9253 144.017 63.5677V63.4962C144.017 63.0672 143.876 62.8527 143.382 62.4952C142.678 62.0661 142.325 61.6371 142.325 60.9936C142.325 60.207 142.96 59.5635 143.735 59.5635C144.087 59.5635 144.369 59.635 144.651 59.8495L144.44 60.493C144.228 60.35 144.017 60.2785 143.735 60.2785C143.382 60.207 143.1 60.493 143.03 60.8506V60.9221C143.03 61.2796 143.171 61.4941 143.664 61.8516C144.299 62.1376 144.651 62.7812 144.722 63.4247C144.792 64.2113 144.228 64.9263 143.453 64.9978H143.171C142.819 64.9978 142.466 64.9263 142.184 64.7118L142.396 63.9253Z" fill="#181819"/>
<path id="Vector_23" d="M148.105 64.6403C147.823 64.7833 147.541 64.8548 147.26 64.8548C146.132 64.8548 145.356 63.9252 145.356 62.2091C145.356 60.7075 146.132 59.4919 147.4 59.4919C147.612 59.4919 147.894 59.5635 148.105 59.635L147.964 60.35C147.753 60.2785 147.612 60.207 147.4 60.207C146.555 60.207 146.202 61.2081 146.202 62.2091C146.202 63.4247 146.625 64.1398 147.4 64.1398C147.612 64.1398 147.823 64.0683 148.035 63.9967L148.105 64.6403Z" fill="#181819"/>
<path id="Vector_24" d="M148.81 57.3469H149.656V60.1356C149.797 59.9211 149.938 59.7781 150.079 59.7066C150.291 59.5636 150.502 59.4921 150.784 59.4921C151.419 59.4921 151.982 59.9926 151.982 61.3512V64.7834H151.137V61.4227C151.137 60.7792 150.996 60.2071 150.432 60.2071C150.079 60.2071 149.797 60.4931 149.656 61.0652V64.8549H148.81V57.3469Z" fill="#181819"/>
<path id="Vector_25" d="M153.674 62.2806C153.674 63.8537 154.309 64.2113 154.873 64.2113C155.155 64.2113 155.437 64.1398 155.719 63.9967L155.86 64.6403C155.507 64.7833 155.155 64.9263 154.732 64.8548C153.533 64.8548 152.899 63.8537 152.899 62.2091C152.899 60.5645 153.604 59.4919 154.661 59.4919C155.719 59.4919 156.142 60.636 156.142 61.7801V62.2806H153.674ZM155.296 61.6371C155.296 60.5645 154.943 60.1355 154.52 60.1355C153.956 60.1355 153.745 60.922 153.674 61.6371H155.296Z" fill="#181819"/>
<path id="Vector_26" d="M156.917 60.922C156.917 60.35 156.846 59.9925 156.846 59.5635H157.551L157.622 60.207C157.833 59.778 158.327 59.4919 158.82 59.4919C159.525 59.4919 160.089 60.064 160.089 61.2796V64.7833H159.243V61.4226C159.243 60.779 159.102 60.207 158.538 60.207C158.186 60.207 157.904 60.493 157.763 61.0651V64.8548H156.917V60.922Z" fill="#181819"/>
<path id="Vector_27" d="M163.543 64.7832L162.204 57.4897H163.05L163.684 60.9935C163.825 61.923 163.966 62.7096 164.037 63.6392H164.107C164.178 62.7096 164.389 61.923 164.53 60.9935L165.165 57.4897H165.87L166.504 60.922C166.645 61.78 166.786 62.6381 166.927 63.6392C167.068 62.5666 167.209 61.78 167.28 60.9935L167.914 57.5612H168.689L167.28 64.8547H166.504L165.799 61.351C165.658 60.5645 165.517 59.7779 165.447 58.9913C165.376 59.7779 165.235 60.5645 165.024 61.4225L164.319 64.9262L163.543 64.7832Z" fill="#181819"/>
<path id="Vector_28" d="M170.099 58.2049C170.099 58.4909 169.958 58.7054 169.676 58.7054H169.606C169.324 58.7054 169.112 58.4909 169.112 58.2049V58.1333C169.112 57.8473 169.253 57.6328 169.535 57.6328H169.606C169.888 57.7043 170.099 57.9188 170.099 58.2049ZM169.183 64.7833V59.5634H170.029V64.7833H169.183Z" fill="#181819"/>
<path id="Vector_29" d="M171.157 60.922C171.157 60.493 171.086 59.9925 171.086 59.5635H171.791L171.862 60.4215C172.003 59.921 172.426 59.5634 172.919 59.4919H173.06V60.35H172.919C172.355 60.4215 171.932 60.8505 171.932 61.4226V64.7833H171.157V60.922Z" fill="#181819"/>
<path id="Vector_30" d="M175.034 58.2048V59.5634H176.021V60.207H175.034V63.2817C175.034 63.9967 175.316 64.1397 175.598 64.1397H175.95L176.021 64.7833C175.809 64.8548 175.598 64.8548 175.386 64.8548C175.104 64.8548 174.822 64.7833 174.611 64.5688C174.329 64.2112 174.258 63.7107 174.329 63.2817V60.207H173.694V59.5634H174.329V58.4193L175.034 58.2048Z" fill="#181819"/>
<path id="Vector_31" d="M176.585 63.9253C176.796 64.0683 177.149 64.2113 177.43 64.2113C177.853 64.2113 178.135 63.9253 178.206 63.5677V63.4962C178.206 63.0672 178.065 62.8527 177.571 62.4952C176.937 62.0661 176.514 61.6371 176.514 60.9936C176.514 60.207 177.149 59.5635 177.924 59.5635C178.276 59.5635 178.558 59.635 178.84 59.8495L178.629 60.493C178.417 60.35 178.206 60.2785 177.924 60.2785C177.571 60.2785 177.29 60.493 177.29 60.8506V60.9221C177.29 61.2796 177.43 61.4941 177.924 61.8516C178.558 62.1376 178.911 62.7812 178.981 63.4247C179.052 64.2113 178.488 64.9263 177.712 64.9978H177.43C177.078 64.9978 176.726 64.9263 176.444 64.7118L176.585 63.9253Z" fill="#181819"/>
<path id="Vector_32" d="M182.294 64.6403C182.012 64.7833 181.73 64.8548 181.448 64.8548C180.321 64.8548 179.545 63.9252 179.545 62.2091C179.545 60.7075 180.25 59.4919 181.589 59.4919C181.801 59.4919 182.083 59.5635 182.294 59.635L182.153 60.35C181.942 60.2785 181.801 60.207 181.589 60.207C180.744 60.207 180.391 61.2081 180.391 62.2091C180.391 63.4247 180.814 64.1398 181.589 64.1398C181.801 64.1398 182.012 64.0683 182.153 63.9967L182.294 64.6403Z" fill="#181819"/>
<path id="Vector_33" d="M182.999 57.3469H183.775V60.1356C183.916 59.9211 184.057 59.7781 184.198 59.7066C184.409 59.5636 184.621 59.4921 184.903 59.4921C185.537 59.4921 186.101 59.9926 186.101 61.3512V64.7834H185.396V61.4227C185.396 60.7792 185.255 60.2071 184.691 60.2071C184.339 60.2071 183.986 60.4931 183.916 61.0652V64.8549H183.14L182.999 57.3469Z" fill="#181819"/>
<path id="Vector_34" d="M189.344 64.7833L189.273 64.2112C189.062 64.5688 188.709 64.8548 188.216 64.8548C187.511 64.7833 186.947 64.2112 187.017 63.4247V63.3532C187.017 62.0661 188.075 61.4941 189.203 61.4225V61.2795C189.203 60.5645 189.062 60.064 188.427 60.064C188.145 60.064 187.793 60.1355 187.581 60.35L187.44 59.7779C187.793 59.5634 188.216 59.4204 188.639 59.4204C189.696 59.4204 190.119 60.1355 190.119 61.2795V63.6392C190.119 64.0682 190.119 64.4257 190.19 64.8548L189.344 64.7833ZM189.203 62.0661C188.78 62.0661 187.793 62.1376 187.793 63.2817C187.793 63.9967 188.145 64.2112 188.427 64.2112C188.709 64.2112 189.132 63.9252 189.203 63.4247V62.0661Z" fill="#181819"/>
<path id="Vector_35" d="M191.388 64.7834V60.2071H190.754V59.5635H191.388V59.2775C191.318 58.7055 191.529 58.1334 191.811 57.7044C192.093 57.4184 192.445 57.2754 192.868 57.2754C193.08 57.2754 193.291 57.3469 193.503 57.4184L193.362 58.0619C193.221 57.9904 193.08 57.9904 192.939 57.9904C192.375 57.9904 192.234 58.634 192.234 59.2775V59.5635H193.15V60.2071H192.234V64.7834H191.388Z" fill="#181819"/>
<path id="Vector_36" d="M194.631 58.2048V59.5634H195.618V60.207H194.631V63.2817C194.631 63.9967 194.842 64.1397 195.195 64.1397H195.547V64.7833C195.336 64.8548 195.124 64.8548 194.913 64.8548C194.631 64.8548 194.349 64.7833 194.137 64.5688C193.855 64.2112 193.785 63.7107 193.855 63.2817V60.207H193.221V59.5634H193.855V58.4193L194.631 58.2048Z" fill="#181819"/>
<path id="Vector_37" d="M198.578 62.2806C198.578 63.8537 199.213 64.2113 199.777 64.2113C200.059 64.2113 200.341 64.1398 200.623 63.9967L200.764 64.6403C200.411 64.7833 200.059 64.9263 199.636 64.8548C198.367 64.8548 197.803 63.8537 197.803 62.2091C197.803 60.5645 198.508 59.4919 199.565 59.4919C200.623 59.4919 201.046 60.636 201.046 61.7801V62.2806H198.578ZM200.2 61.6371C200.2 60.5645 199.847 60.1355 199.424 60.1355C198.86 60.1355 198.649 60.922 198.578 61.6371H200.2Z" fill="#181819"/>
<path id="Vector_38" d="M201.75 64.2827C201.75 63.9967 201.962 63.7107 202.244 63.6392C202.526 63.6392 202.808 63.9252 202.808 64.2112V64.2827C202.878 64.5687 202.667 64.8547 202.314 64.9262H202.244C201.962 64.8547 201.75 64.6402 201.75 64.2827Z" fill="#181819"/>
<path id="Vector_39" d="M205.064 64.7832L203.442 57.4897H204.288L204.993 60.922C205.134 61.7085 205.346 62.7811 205.487 63.7107C205.557 62.7811 205.769 61.78 205.98 60.922L206.685 57.5612H207.531L205.839 64.8547H205.064V64.7832Z" fill="#181819"/>
<path id="Vector_40" d="M207.601 64.2827C207.601 63.9967 207.813 63.7107 208.095 63.6392C208.377 63.6392 208.659 63.9252 208.659 64.2112V64.2827C208.729 64.5687 208.518 64.8547 208.165 64.9262H208.095C207.813 64.8547 207.531 64.5687 207.601 64.2827C207.554 64.2827 207.554 64.2827 207.601 64.2827Z" fill="#181819"/>
<path id="Vector_41" d="M60.3419 49.6959C60.2009 49.6959 60.1304 49.6244 60.0599 49.5529C59.9894 49.4814 59.9189 49.4099 59.9189 49.3384V28.8165C59.9189 28.6735 59.9894 28.602 60.0599 28.5305C60.1304 28.459 60.2714 28.3875 60.3419 28.3875H65.1354C65.8403 28.3875 66.6158 28.5305 67.3207 28.745C67.9551 28.9595 68.5896 29.317 69.1535 29.746C69.7174 30.1751 70.1404 30.7471 70.4929 31.4622C70.8453 32.1772 70.9863 32.9638 70.9863 33.7503V34.3939C70.9863 34.7514 70.9863 35.1089 70.9158 35.4664C70.8453 35.8239 70.7748 36.253 70.6339 36.539C70.4224 36.968 70.2109 37.3256 69.8584 37.6831C69.4355 38.1121 68.942 38.5411 68.4486 38.8272C69.365 39.1132 70.2109 39.7567 70.7044 40.6148C71.2683 41.5443 71.5503 42.6884 71.5503 43.761V44.047C71.5503 44.8336 71.4093 45.6916 71.0568 46.4067C70.7748 47.0502 70.3519 47.6937 69.7879 48.1943C69.224 48.6948 68.5896 49.0523 67.9551 49.3384C67.2502 49.6244 66.5453 49.7674 65.7699 49.7674L60.3419 49.6959ZM62.2452 37.7546H64.9944C65.4174 37.7546 65.8403 37.6831 66.2633 37.6116C66.6863 37.4686 67.0387 37.3256 67.3912 37.0395C67.7436 36.7535 68.0256 36.396 68.2371 35.967C68.4486 35.3949 68.5896 34.8229 68.5191 34.2508V33.9648C68.5191 33.3928 68.4486 32.8207 68.2371 32.3202C68.0256 31.9627 67.8141 31.6052 67.3912 31.3907C67.0387 31.1761 66.6863 31.0331 66.2633 30.9616C65.8403 30.7471 65.4174 30.7471 64.9944 30.7471H62.2452V37.7546ZM65.6289 47.4077C66.0518 47.4077 66.4748 47.3362 66.8272 47.2647C67.2502 47.1217 67.6027 46.9787 67.9551 46.6927C68.3076 46.4067 68.5896 46.0491 68.7305 45.6201C68.942 45.1196 69.083 44.5475 69.0125 43.9755C69.0125 43.4035 68.942 42.8314 68.7305 42.2594C68.5191 41.8304 68.2371 41.4013 67.9551 41.1153C67.6732 40.8293 67.2502 40.5433 66.8272 40.4003C66.4043 40.2572 66.0518 40.1857 65.6289 40.1857H62.3157V47.4792H65.6289V47.4077Z" fill="#181819"/>
<path id="Vector_42" d="M74.7224 28.8165C74.7224 28.6735 74.7929 28.602 74.8634 28.5305C74.9339 28.459 75.0749 28.3875 75.1454 28.3875H76.6962C76.9077 28.3875 77.0487 28.602 77.1192 28.8165V49.3384C77.1192 49.5529 76.9077 49.6959 76.6962 49.7674H75.1454C75.0044 49.7674 74.9339 49.6959 74.8634 49.6244C74.7929 49.5529 74.7224 49.4814 74.7224 49.3384V28.8165Z" fill="#181819"/>
<path id="Vector_43" d="M89.4554 47.4077C89.5258 47.4077 89.6668 47.4792 89.6668 47.5507C89.7373 47.6222 89.8078 47.7653 89.8078 47.8368V49.3384C89.7373 49.5529 89.5963 49.6959 89.4554 49.6959H81.2782C81.1372 49.6959 81.0667 49.6244 80.9962 49.5529C80.9257 49.4814 80.8552 49.4099 80.8552 49.2669V28.8165C80.8552 28.6735 80.9257 28.602 80.9962 28.5305C81.0667 28.459 81.2077 28.3875 81.2782 28.3875H82.829C83.0405 28.3875 83.1815 28.602 83.252 28.8165V47.4077H89.4554Z" fill="#181819"/>
<path id="Vector_44" d="M93.2621 49.6959C93.0506 49.6959 92.8391 49.4814 92.8391 49.2669V28.8165C92.8391 28.602 93.0506 28.3875 93.2621 28.3875H98.6195C99.3949 28.3875 100.17 28.5305 100.875 28.8165C101.58 29.1025 102.144 29.46 102.708 29.9606C103.202 30.4611 103.625 31.0331 103.906 31.6767C104.188 32.3202 104.329 33.1068 104.329 33.8218V44.19C104.329 44.9051 104.188 45.6916 103.906 46.3352C103.625 46.9787 103.202 47.5507 102.708 48.0513C102.215 48.5518 101.58 48.9808 100.875 49.2669C100.17 49.5529 99.3949 49.6959 98.6195 49.6959H93.2621ZM102.003 34.3223C102.003 33.7503 101.933 33.1783 101.721 32.6777C101.51 32.2487 101.298 31.8912 100.946 31.5337C100.664 31.2476 100.241 31.0331 99.8179 30.8901C99.395 30.7471 99.0425 30.6756 98.6195 30.6756H95.1654V47.4792H98.549C98.972 47.4792 99.3949 47.4077 99.7474 47.2647C100.17 47.1217 100.523 46.9072 100.875 46.6212C101.228 46.3352 101.51 45.9061 101.651 45.4771C101.862 44.9766 102.003 44.4045 101.933 43.8325L102.003 34.3223Z" fill="#181819"/>
<path id="Vector_45" d="M113.705 49.9104C112.929 49.9104 112.084 49.7674 111.308 49.4814C110.603 49.1953 109.969 48.8378 109.475 48.3373C108.418 47.3362 107.783 45.9061 107.854 44.4045V28.8165C107.854 28.6735 107.924 28.602 107.995 28.5305C108.065 28.459 108.206 28.3875 108.277 28.3875H109.828C109.969 28.3875 110.039 28.459 110.11 28.5305C110.18 28.602 110.251 28.6735 110.251 28.8165V43.904C110.251 44.476 110.321 45.0481 110.533 45.5486C110.744 45.9776 110.956 46.4067 111.308 46.6927C111.661 46.9787 112.013 47.1932 112.436 47.3362C112.859 47.4792 113.282 47.5507 113.705 47.5507C114.128 47.5507 114.551 47.4792 114.974 47.3362C115.397 47.1932 115.749 46.9787 116.102 46.6927C116.454 46.4067 116.736 45.9776 116.877 45.5486C117.089 45.0481 117.229 44.476 117.159 43.904V28.8165C117.159 28.602 117.37 28.459 117.582 28.3875H119.062C119.203 28.3875 119.274 28.459 119.344 28.5305C119.415 28.602 119.485 28.6735 119.485 28.8165V44.4045C119.485 45.1196 119.344 45.9061 119.062 46.5497C118.78 47.1932 118.357 47.7653 117.864 48.2658C117.3 48.7663 116.666 49.1238 116.031 49.4099C115.326 49.7674 114.48 49.9104 113.705 49.9104Z" fill="#181819"/>
<path id="Vector_46" d="M125.759 34.9659V49.3384C125.759 49.5529 125.548 49.6959 125.336 49.7674H123.786C123.645 49.7674 123.574 49.6959 123.504 49.6244C123.433 49.5529 123.363 49.4814 123.363 49.3384V28.8165C123.363 28.6735 123.433 28.602 123.504 28.5305C123.574 28.459 123.715 28.3875 123.786 28.3875H125.195C125.266 28.3875 125.336 28.3875 125.407 28.459C125.477 28.5305 125.477 28.602 125.548 28.602L132.386 43.5465V28.8165C132.386 28.602 132.597 28.459 132.809 28.3875H134.359C134.5 28.3875 134.571 28.459 134.641 28.5305C134.712 28.602 134.782 28.6735 134.782 28.8165V49.3384C134.782 49.4099 134.712 49.5529 134.641 49.6244C134.571 49.6959 134.43 49.7674 134.359 49.7674H132.95C132.879 49.7674 132.809 49.7674 132.738 49.6959C132.668 49.6244 132.668 49.6244 132.597 49.5529L125.759 34.9659Z" fill="#181819"/>
<path id="Vector_47" d="M145.85 40.6862C145.779 40.6862 145.709 40.6147 145.638 40.5432C145.568 40.4717 145.497 40.3287 145.497 40.2572V38.7556C145.497 38.6841 145.568 38.541 145.638 38.541C145.709 38.4695 145.779 38.398 145.85 38.398H149.656C149.797 38.398 149.868 38.4695 149.938 38.541C150.009 38.6126 150.079 38.6841 150.079 38.8271V49.3383C150.079 49.4098 150.009 49.5528 149.938 49.6243C149.868 49.6958 149.727 49.7673 149.656 49.7673H148.388C148.317 49.7673 148.176 49.6958 148.106 49.6243C148.035 49.5528 147.965 49.4813 147.965 49.3383V48.3372C147.542 48.8377 146.978 49.1953 146.414 49.4813C145.779 49.7673 145.004 49.9103 144.299 49.9103C143.523 49.9103 142.748 49.7673 141.973 49.4813C141.268 49.1953 140.704 48.8377 140.14 48.3372C139.082 47.3361 138.448 45.906 138.519 44.4044V33.6072C138.519 32.8922 138.659 32.1056 138.941 31.4621C139.223 30.8185 139.646 30.2465 140.14 29.746C140.704 29.2454 141.338 28.8879 141.973 28.6019C142.748 28.3159 143.523 28.1729 144.299 28.1729C145.004 28.1729 145.709 28.3159 146.414 28.6019C147.048 28.8879 147.683 29.2454 148.176 29.746C148.669 30.2465 149.092 30.8185 149.445 31.3906C149.797 32.0341 149.938 32.7492 150.009 33.4642C150.009 33.6787 149.797 33.8217 149.586 33.8932H148.035C147.753 33.8932 147.612 33.7502 147.612 33.4642C147.612 32.9637 147.471 32.4631 147.189 31.9626C146.978 31.6051 146.696 31.2476 146.343 31.033C146.061 30.8185 145.709 30.604 145.286 30.5325C144.933 30.461 144.51 30.3895 144.158 30.3895C143.735 30.3895 143.312 30.461 142.889 30.604C142.466 30.747 142.114 30.9615 141.761 31.2476C141.409 31.5336 141.127 31.9626 140.986 32.3916C140.774 32.8922 140.633 33.5357 140.704 34.1077V44.1184C140.704 44.6905 140.774 45.2625 140.986 45.763C141.197 46.1921 141.409 46.6211 141.761 46.9071C142.114 47.1931 142.466 47.4076 142.889 47.5507C143.664 47.8367 144.51 47.8367 145.286 47.5507C145.709 47.4076 146.061 47.1931 146.343 46.9786C146.696 46.6926 146.978 46.3351 147.189 45.9775C147.401 45.477 147.542 44.9765 147.542 44.4759V40.8292H145.85V40.6862Z" fill="#181819"/>
<path id="Vector_48" d="M153.322 33.5357C153.322 32.6777 153.463 31.8196 153.815 31.033C154.097 30.3895 154.52 29.8175 155.014 29.3884C155.507 28.9594 156.141 28.6019 156.776 28.4589C157.481 28.2444 158.186 28.1729 158.891 28.1729C159.525 28.1729 160.23 28.2444 160.865 28.4589C161.499 28.6019 162.133 28.8879 162.627 29.3169C163.191 29.746 163.614 30.318 163.896 30.9615C164.248 31.7481 164.389 32.6061 164.389 33.4642C164.389 33.5357 164.319 33.6787 164.248 33.7502C164.178 33.8217 164.037 33.8932 163.966 33.8932H162.415C162.345 33.8932 162.204 33.8217 162.133 33.7502C162.063 33.6787 161.992 33.6072 161.992 33.4642C161.992 33.1067 161.992 32.7492 161.922 32.3916C161.851 32.0341 161.71 31.6766 161.499 31.3906C161.287 31.1045 160.935 30.8185 160.583 30.6755C160.089 30.461 159.525 30.3895 159.032 30.3895C158.397 30.318 157.763 30.461 157.128 30.747C156.705 30.9615 156.423 31.2476 156.141 31.6051C155.93 31.8911 155.86 32.2486 155.789 32.6061C155.789 32.9637 155.719 33.1782 155.719 33.3212C155.719 34.1077 155.93 34.8943 156.423 35.4663C156.917 36.0384 157.481 36.5389 158.115 36.9679C158.82 37.397 159.596 37.826 160.371 38.255C161.146 38.6126 161.922 39.1131 162.627 39.6851C163.332 40.2572 163.896 40.9007 164.319 41.6873C164.812 42.5453 165.024 43.5464 165.024 44.619C165.024 45.477 164.883 46.2636 164.601 47.0501C164.319 47.6937 163.896 48.2657 163.402 48.6947C162.909 49.1238 162.274 49.4813 161.64 49.6243C160.935 49.8388 160.23 49.9103 159.525 49.9103C158.82 49.9103 158.186 49.8388 157.551 49.6243C156.846 49.4098 156.212 49.1238 155.648 48.6947C155.084 48.2657 154.591 47.6937 154.238 46.9786C153.815 46.1921 153.533 45.334 153.463 44.4759C153.463 44.3329 153.533 44.2614 153.604 44.1899C153.674 44.1184 153.815 44.0469 153.886 44.0469H155.437C155.648 44.0469 155.789 44.2614 155.86 44.4759C155.86 44.905 155.93 45.2625 156.071 45.62C156.212 45.9775 156.423 46.3351 156.705 46.6211C157.058 46.9786 157.41 47.1931 157.833 47.4076C158.397 47.6222 158.961 47.6937 159.525 47.6937C160.16 47.6937 160.794 47.6222 161.428 47.3361C161.851 47.1216 162.133 46.8356 162.415 46.4781C162.627 46.1921 162.697 45.8345 162.768 45.477C162.838 45.1195 162.838 44.905 162.838 44.762C162.838 43.9039 162.627 43.1174 162.133 42.4023C161.64 41.7588 161.076 41.2582 160.371 40.8292C159.666 40.4002 158.891 39.9711 158.115 39.6136C157.34 39.2561 156.564 38.8271 155.93 38.3265C155.225 37.826 154.661 37.1825 154.238 36.4674C153.533 35.4663 153.322 34.5368 153.322 33.5357Z" fill="#181819"/>
<path id="Vector_49" d="M176.02 28.3875C176.091 28.3875 176.161 28.459 176.161 28.459C176.232 28.5305 176.302 28.602 176.302 28.745L179.686 45.0481L182.435 28.8165C182.435 28.602 182.647 28.459 182.858 28.3875H184.409C184.55 28.3875 184.621 28.459 184.691 28.5305C184.762 28.602 184.832 28.6735 184.832 28.8165L181.166 49.3384C181.166 49.4099 181.096 49.5529 181.025 49.6244C180.955 49.6959 180.814 49.7674 180.744 49.7674H178.699C178.629 49.7674 178.488 49.6959 178.417 49.6244C178.347 49.5529 178.347 49.4814 178.276 49.3384L175.598 36.4675L172.919 49.3384C172.919 49.4099 172.848 49.5529 172.778 49.6244C172.707 49.6959 172.637 49.7674 172.496 49.7674H170.593C170.452 49.7674 170.381 49.6959 170.311 49.6244C170.24 49.5529 170.17 49.4814 170.17 49.3384L166.574 28.888C166.574 28.745 166.645 28.6735 166.715 28.602C166.786 28.5305 166.927 28.459 166.997 28.459H168.548C168.76 28.459 168.901 28.6735 168.971 28.888L171.72 45.1196L175.104 28.8165C175.104 28.745 175.175 28.602 175.245 28.5305C175.292 28.4828 175.339 28.459 175.386 28.459L176.02 28.3875Z" fill="#181819"/>
<path id="Vector_50" d="M189.767 30.7471V38.6126H194.208C194.278 38.6126 194.419 38.6841 194.419 38.7556C194.49 38.8272 194.56 38.9702 194.56 39.0417V40.5433C194.56 40.6148 194.49 40.6863 194.419 40.7578C194.349 40.8293 194.278 40.9008 194.208 40.9008H189.767V47.4077H195.97C196.04 47.4077 196.181 47.4792 196.181 47.5507C196.252 47.6222 196.322 47.7653 196.322 47.8368V49.2669C196.252 49.4814 196.111 49.6244 195.97 49.6244H187.793C187.652 49.6244 187.581 49.5529 187.511 49.4814C187.44 49.4099 187.37 49.3384 187.37 49.1954V28.8165C187.37 28.745 187.44 28.602 187.511 28.5305C187.581 28.459 187.722 28.3875 187.793 28.3875H195.97C196.181 28.459 196.322 28.602 196.322 28.745V30.2466C196.322 30.3896 196.252 30.4611 196.181 30.5326C196.111 30.6041 196.04 30.6756 195.97 30.6756L189.767 30.7471Z" fill="#181819"/>
<path id="Vector_51" d="M211.197 36.4675C211.267 37.6831 210.985 38.8272 210.421 39.8997C209.928 40.7578 209.223 41.4728 208.377 41.9734L210.633 49.1954C210.633 49.3384 210.562 49.4099 210.492 49.5529C210.421 49.6244 210.28 49.6959 210.139 49.6959H208.87C208.729 49.6959 208.588 49.6244 208.518 49.5529C208.447 49.4814 208.377 49.3384 208.377 49.1954L206.333 42.6169C206.192 42.6169 206.121 42.6884 205.98 42.6884H202.315V49.3384C202.315 49.4099 202.244 49.5529 202.174 49.6244C202.103 49.6959 201.962 49.7674 201.892 49.7674H200.411C200.27 49.7674 200.2 49.6959 200.129 49.6244C200.059 49.5529 199.988 49.4814 199.988 49.3384V28.8165C199.988 28.6735 200.059 28.602 200.129 28.5305C200.2 28.459 200.341 28.3875 200.411 28.3875H205.628C206.333 28.3875 207.038 28.5305 207.742 28.745C208.447 28.9595 209.011 29.3885 209.505 29.8891C210.069 30.4611 210.492 31.1046 210.774 31.8197C211.126 32.6777 211.267 33.5358 211.267 34.4654L211.197 36.4675ZM208.8 34.7514C208.8 34.1078 208.729 33.5358 208.518 32.9638C208.306 32.4632 208.095 32.0342 207.742 31.6767C207.461 31.3907 207.038 31.1046 206.615 30.9616C206.262 30.8186 205.839 30.7471 205.416 30.7471H202.315V40.4003H205.416C205.839 40.4003 206.262 40.3288 206.615 40.1142C207.038 39.9712 207.39 39.6852 207.742 39.3277C208.095 38.9702 208.377 38.5411 208.518 38.0406C208.729 37.4686 208.87 36.825 208.8 36.253V34.7514Z" fill="#181819"/>
<path id="Vector_52" d="M226 49.3384C226 49.4099 225.929 49.5529 225.859 49.6244C225.788 49.6959 225.648 49.7674 225.577 49.7674H224.097C223.956 49.7674 223.885 49.6959 223.744 49.6244C223.603 49.5529 223.533 49.4814 223.533 49.3384L219.726 39.6852L216.765 45.1911V49.3384C216.765 49.4099 216.695 49.5529 216.624 49.6244C216.554 49.6959 216.483 49.7674 216.342 49.7674H214.792C214.651 49.7674 214.58 49.6959 214.51 49.6244C214.439 49.5529 214.369 49.4814 214.369 49.3384V28.8165C214.369 28.745 214.439 28.602 214.51 28.5305C214.58 28.459 214.721 28.3875 214.792 28.3875H216.342C216.413 28.3875 216.554 28.459 216.624 28.5305C216.695 28.602 216.765 28.6735 216.765 28.8165V40.3288L223.039 28.8165C223.11 28.6735 223.18 28.602 223.321 28.5305C223.392 28.459 223.533 28.3875 223.674 28.3875H225.225C225.366 28.3875 225.436 28.459 225.507 28.5305C225.577 28.602 225.648 28.6735 225.648 28.8165L221.277 36.7535L226 49.3384Z" fill="#181819"/>
<path id="Vector_53" d="M25.6594 16.3745C15.7199 17.8762 6.48534 16.5176 0 13.1568L5.9214 19.1632C11.9838 20.4503 19.315 20.3788 26.8578 18.5197C34.612 16.5891 41.3088 13.1568 46.1023 9.00956C47.5122 7.72247 48.8515 6.29237 50.0499 4.79077C44.9039 10.3681 36.0923 14.7299 25.6594 16.3745Z" fill="#181819"/>
<path id="Vector_54" d="M64.2894 0C61.8221 7.36499 57.5221 15.445 50.0498 21.666C40.3923 29.6745 29.9594 34.1793 21.2183 34.5368C23.474 34.6083 25.7298 34.4653 27.9151 34.2508C35.2463 33.1067 43.353 29.8175 50.9662 24.3831C59.3549 18.4482 67.0386 7.86553 70.7042 0L64.2894 0Z" fill="#181819"/>
<path id="Vector_55" d="M32.4971 19.3063C23.3331 22.381 14.31 22.7385 7.47217 20.7364L12.0542 25.3127C18.5395 25.8848 26.3642 24.5977 34.1185 21.2369C41.3087 18.0192 47.3711 13.4429 51.3892 8.58059C52.5876 7.07899 53.645 5.43438 54.6319 3.71826C50.4728 10.0822 42.5071 15.9456 32.4971 19.3063Z" fill="#181819"/>
<path id="Vector_56" d="M39.7579 21.5945C30.4529 26.5284 20.7954 28.173 13.4641 26.8144L17.5527 30.9617C24.6725 31.1762 33.4136 28.5305 41.5907 23.2391C48.2876 18.8773 53.5745 13.443 56.7467 7.93711C57.7336 6.22099 58.509 4.43337 59.214 2.64575C56.1123 9.58172 49.1335 16.6607 39.7579 21.5945Z" fill="#181819"/>
</g>
</g>
<defs>
<clipPath id="clip0_13_115">
<rect width="226" height="67" fill="white"/>
</clipPath>
</defs>
</svg>
