<svg width="25" height="24" viewBox="0 0 25 24" fill="none" xmlns="http://www.w3.org/2000/svg">
<g id="ph:instagram-logo-fill">
<path id="Vector" d="M15.0469 12C15.0469 12.5933 14.8709 13.1734 14.5413 13.6667C14.2116 14.1601 13.7431 14.5446 13.1949 14.7716C12.6467 14.9987 12.0435 15.0581 11.4616 14.9424C10.8797 14.8266 10.3451 14.5409 9.92555 14.1213C9.506 13.7018 9.22027 13.1672 9.10452 12.5853C8.98876 12.0033 9.04817 11.4001 9.27524 10.8519C9.5023 10.3038 9.88682 9.83524 10.3802 9.50559C10.8735 9.17595 11.4535 9 12.0469 9C12.8418 9.00247 13.6034 9.31934 14.1655 9.88141C14.7275 10.4435 15.0444 11.2051 15.0469 12ZM21.4219 7.875V16.125C21.4219 17.5174 20.8688 18.8527 19.8842 19.8373C18.8996 20.8219 17.5643 21.375 16.1719 21.375H7.92188C6.52949 21.375 5.19413 20.8219 4.20956 19.8373C3.225 18.8527 2.67188 17.5174 2.67188 16.125V7.875C2.67188 6.48261 3.225 5.14726 4.20956 4.16269C5.19413 3.17812 6.52949 2.625 7.92188 2.625H16.1719C17.5643 2.625 18.8996 3.17812 19.8842 4.16269C20.8688 5.14726 21.4219 6.48261 21.4219 7.875ZM16.5469 12C16.5469 11.11 16.283 10.24 15.7885 9.49993C15.294 8.75991 14.5912 8.18314 13.769 7.84254C12.9467 7.50195 12.0419 7.41283 11.169 7.58647C10.2961 7.7601 9.49423 8.18868 8.86489 8.81802C8.23556 9.44736 7.80697 10.2492 7.63334 11.1221C7.45971 11.995 7.54882 12.8998 7.88942 13.7221C8.23001 14.5443 8.80679 15.2471 9.54681 15.7416C10.2868 16.2361 11.1569 16.5 12.0469 16.5C13.2403 16.5 14.3849 16.0259 15.2289 15.182C16.0728 14.3381 16.5469 13.1935 16.5469 12ZM18.0469 7.125C18.0469 6.9025 17.9809 6.68499 17.8573 6.49998C17.7337 6.31498 17.558 6.17078 17.3524 6.08564C17.1468 6.00049 16.9206 5.97821 16.7024 6.02162C16.4842 6.06502 16.2837 6.17217 16.1264 6.3295C15.969 6.48684 15.8619 6.68729 15.8185 6.90552C15.7751 7.12375 15.7974 7.34995 15.8825 7.55552C15.9677 7.76109 16.1119 7.93679 16.2969 8.0604C16.4819 8.18402 16.6994 8.25 16.9219 8.25C17.2202 8.25 17.5064 8.13147 17.7174 7.9205C17.9283 7.70952 18.0469 7.42337 18.0469 7.125Z" fill="white"/>
</g>
</svg>
