<svg width="25" height="24" viewBox="0 0 25 24" fill="none" xmlns="http://www.w3.org/2000/svg">
<g id="entypo-social:linkedin-with-circle">
<path id="Vector" d="M12.0468 2.05469C6.554 2.05469 2.10132 6.50737 2.10132 12.0002C2.10132 17.493 6.554 21.9457 12.0468 21.9457C17.5396 21.9457 21.9923 17.493 21.9923 12.0002C21.9923 6.50737 17.5396 2.05469 12.0468 2.05469ZM9.61225 16.1224H7.59828V9.64124H9.61225V16.1224ZM8.59283 8.8456C7.95674 8.8456 7.54545 8.39495 7.54545 7.83758C7.54545 7.26883 7.96917 6.83164 8.61873 6.83164C9.2683 6.83164 9.66612 7.26883 9.67855 7.83758C9.67855 8.39495 9.2683 8.8456 8.59283 8.8456ZM16.9678 16.1224H14.9538V12.5306C14.9538 11.6946 14.6617 11.1269 13.9334 11.1269C13.377 11.1269 13.0466 11.5112 12.9005 11.8811C12.8466 12.0126 12.8331 12.1991 12.8331 12.3845V16.1214H10.8181V11.708C10.8181 10.8989 10.7922 10.2224 10.7653 9.64021H12.5151L12.6073 10.5405H12.6477C12.9129 10.1178 13.5625 9.49413 14.6492 9.49413C15.9743 9.49413 16.9678 10.382 16.9678 12.2903V16.1224Z" fill="white"/>
</g>
</svg>
