<svg width="164" height="28" viewBox="0 0 164 28" fill="none" xmlns="http://www.w3.org/2000/svg">
<g id="Logo" clip-path="url(#clip0_463_41)">
<g id="Group">
<path id="Vector" d="M55.1559 5.75128C56.7662 5.75128 58.0991 7.08135 58.0991 8.68829V17.2538C58.0991 18.8922 56.7662 20.1908 55.1559 20.1908H49.4524C47.842 20.1908 46.5377 18.8922 46.5377 17.2538H54.9042V8.68829H46.5377V17.2538H43.3141V8.68829C43.3141 7.08135 44.647 5.75128 46.2574 5.75128H55.153H55.1559ZM43.3169 26.6871V21.6465H46.5405V26.6871H43.3169Z" fill="black"/>
<path id="Vector_2" d="M61.4314 21.6493V11.845C61.4314 10.0811 62.8874 8.65973 64.655 8.65973V21.6493H61.4314ZM64.7151 5.75412V8.66258H72.1834V5.75412H64.7151Z" fill="black"/>
<path id="Vector_3" d="M77.8326 8.69112V18.7409H74.6405V8.69112C74.6405 7.08419 75.9419 5.75412 77.5838 5.75412H83.5647C85.2065 5.75412 86.508 7.08419 86.508 8.69112H77.8297H77.8326ZM86.5109 8.69112H89.703V18.7409C89.703 20.3478 88.4016 21.6493 86.7883 21.6493H80.7444C79.1341 21.6493 77.8326 20.3507 77.8326 18.7409H86.5109V8.69112Z" fill="black"/>
<path id="Vector_4" d="M106.353 8.65974H95.9385V12.2475H92.7464V8.65974C92.7464 7.05281 94.0479 5.75128 95.6611 5.75128H106.353V8.65974ZM103.999 12.2475C105.609 12.2475 106.914 13.5462 106.914 15.156V18.7437C106.914 20.3507 105.612 21.6522 103.999 21.6522H93.2756V18.7437H103.719V15.156H95.9385V12.2475H103.996H103.999Z" fill="black"/>
<path id="Vector_5" d="M113.146 8.69112V18.7409H109.954V8.69112C109.954 7.08419 111.256 5.75412 112.897 5.75412H118.878C120.52 5.75412 121.822 7.08419 121.822 8.69112H113.143H113.146ZM121.825 8.69112H125.017V18.7409C125.017 20.3478 123.715 21.6493 122.105 21.6493H116.061C114.451 21.6493 113.146 20.3507 113.146 18.7409H121.825V8.69112Z" fill="black"/>
<path id="Vector_6" d="M127.774 9.33903V6.27644H138.901V9.33903H133.755V21.6465H130.563V9.33903H127.774ZM138.901 0.0941772V3.18531H133.755V5.69132C131.987 5.69132 130.563 4.26992 130.563 2.506C130.563 1.17593 131.647 0.0941772 132.98 0.0941772H138.901Z" fill="black"/>
<path id="Vector_7" d="M142.21 21.6493V0H145.402V21.6493H142.21Z" fill="black"/>
<path id="Vector_8" d="M152.55 5.75128V17.2881H160.608C160.608 18.895 159.306 20.1937 157.665 20.1937H152.301C150.66 20.1937 149.358 18.895 149.358 17.2881V5.75128H152.55ZM160.608 23.7815V21.6465H163.8V23.8728C163.737 25.4512 162.467 26.6871 160.888 26.6871H149.358V23.7815H160.608ZM160.608 5.75128H163.8V17.2881H160.608V5.75128Z" fill="black"/>
</g>
<g id="Group_2">
<path id="Vector_9" d="M36.8297 21.4581H24.0068V23.0936C24.0068 25.8051 21.8043 28 19.0899 28H8.069V23.7472C8.069 21.0357 10.2715 18.8408 12.9859 18.8408H24.0068V11.0887L37.3331 19.757C38.1054 20.2593 37.7478 21.4552 36.8268 21.4552L36.8297 21.4581Z" fill="black"/>
<path id="Vector_10" d="M14.0614 4.14149L24.0068 11.0887H9.80236C8.90421 11.0887 8.02609 10.8175 7.28526 10.3095L0.566331 5.7056C-0.486272 4.98348 0.0257278 3.33945 1.3043 3.33945H11.51C12.4224 3.33945 13.3148 3.61916 14.0614 4.14149Z" fill="black"/>
</g>
</g>
<defs>
<clipPath id="clip0_463_41">
<rect width="163.8" height="28" fill="white"/>
</clipPath>
</defs>
</svg>
