<svg width="126" height="85" viewBox="0 0 126 85" fill="none" xmlns="http://www.w3.org/2000/svg">
<g id="Stepi Logo" clip-path="url(#clip0_11_100)">
<path id="Vector" d="M46.0473 33.3816H39.5082H34.9055H28.2006H24.1416V38.0036V43.4518H28.2006V38.0036H34.9055V66.8829H30.3028V71.5049H34.9055H39.5082H44.1109V66.8829H39.5082V38.0036H46.0473V43.4518H50.272V38.0036V33.3816H46.0473Z" fill="#181819"/>
<path id="Vector_2" d="M65.031 46.8738H53.8368H49.2312H46.0503V51.4987H49.2312V63.0843V67.7063V80.3751H46.0503V85H49.2312H53.8368H65.031H69.6366V80.3751V73.9253H65.031V80.3751H53.8368V67.7063H63.3271V63.0843H53.8368V51.4987H65.031V56.8623H69.6366V51.4987V46.8738H65.031Z" fill="#181819"/>
<path id="Vector_3" d="M107.226 38.0036V33.3816H103.879H99.2763H95.9297V38.0036H99.2763V66.8829H95.9297V71.5049H99.2763H103.879H107.226V66.8829H103.879V38.0036H107.226Z" fill="#181819"/>
<path id="Vector_4" d="M81.6711 25.7903H69.6337V31.6298H72.6169V59.4288H69.2703V64.0508H80.5691V59.4288H77.2225V50.3221H81.674C88.4109 50.3221 93.8887 44.8183 93.8887 38.0562C93.8887 31.294 88.408 25.7903 81.674 25.7903H81.6711ZM81.6711 44.4826H77.2196V31.6298H81.6711C85.2009 31.6298 88.0707 34.5116 88.0707 38.0562C88.0707 41.6008 85.2009 44.4826 81.6711 44.4826Z" fill="#181819"/>
<path id="Vector_5" d="M101.286 28.6749C103.45 28.6749 105.205 26.9128 105.205 24.7391C105.205 22.5654 103.45 20.8032 101.286 20.8032C99.121 20.8032 97.3662 22.5654 97.3662 24.7391C97.3662 26.9128 99.121 28.6749 101.286 28.6749Z" fill="#181819"/>
<path id="Vector_6" d="M111.683 28.6749C113.848 28.6749 115.603 26.9128 115.603 24.7391C115.603 22.5654 113.848 20.8032 111.683 20.8032C109.518 20.8032 107.764 22.5654 107.764 24.7391C107.764 26.9128 109.518 28.6749 111.683 28.6749Z" fill="#181819"/>
<path id="Vector_7" d="M122.081 28.6749C124.245 28.6749 126 26.9128 126 24.7391C126 22.5654 124.245 20.8032 122.081 20.8032C119.916 20.8032 118.161 22.5654 118.161 24.7391C118.161 26.9128 119.916 28.6749 122.081 28.6749Z" fill="#181819"/>
<path id="Vector_8" d="M101.286 18.2718C103.45 18.2718 105.205 16.5097 105.205 14.336C105.205 12.1623 103.45 10.4001 101.286 10.4001C99.121 10.4001 97.3662 12.1623 97.3662 14.336C97.3662 16.5097 99.121 18.2718 101.286 18.2718Z" fill="#181819"/>
<path id="Vector_9" d="M111.683 18.2718C113.848 18.2718 115.603 16.5097 115.603 14.336C115.603 12.1623 113.848 10.4001 111.683 10.4001C109.518 10.4001 107.764 12.1623 107.764 14.336C107.764 16.5097 109.518 18.2718 111.683 18.2718Z" fill="#181819"/>
<path id="Vector_10" d="M122.081 18.2718C124.245 18.2718 126 16.5097 126 14.336C126 12.1623 124.245 10.4001 122.081 10.4001C119.916 10.4001 118.161 12.1623 118.161 14.336C118.161 16.5097 119.916 18.2718 122.081 18.2718Z" fill="#181819"/>
<path id="Vector_11" d="M101.286 7.87167C103.45 7.87167 105.205 6.10954 105.205 3.93583C105.205 1.76213 103.45 0 101.286 0C99.121 0 97.3662 1.76213 97.3662 3.93583C97.3662 6.10954 99.121 7.87167 101.286 7.87167Z" fill="#181819"/>
<path id="Vector_12" d="M111.683 7.87167C113.848 7.87167 115.603 6.10954 115.603 3.93583C115.603 1.76213 113.848 0 111.683 0C109.518 0 107.764 1.76213 107.764 3.93583C107.764 6.10954 109.518 7.87167 111.683 7.87167Z" fill="#181819"/>
<path id="Vector_13" d="M122.081 7.87167C124.245 7.87167 126 6.10954 126 3.93583C126 1.76213 124.245 0 122.081 0C119.916 0 118.161 1.76213 118.161 3.93583C118.161 6.10954 119.916 7.87167 122.081 7.87167Z" fill="#181819"/>
<path id="Vector_14" d="M19.2307 51.7177C15.7561 49.4724 11.3773 49.5629 8.08591 47.3468C6.66992 46.4387 5.56504 45.1161 5.37895 43.3934C4.937 40.4795 6.86472 38.24 9.67635 37.6765C14.4012 36.7305 17.4512 40.824 17.9281 41.9365V43.8985H21.9085V33.3845H17.9281V35.6444C14.7704 32.7889 9.99909 31.7261 6.02443 33.4896C1.84042 35.2269 -0.49727 39.662 0.0900614 44.065C0.409895 47.2796 2.37833 50.1468 5.05912 51.8724C7.26015 53.4111 10.1852 54.2958 12.552 54.9235C14.0755 55.3352 15.4275 55.7498 16.2998 56.3192C17.2506 56.8944 17.7478 57.7849 18.152 58.7659C19.03 60.8915 18.7654 63.4697 17.332 65.242C15.8317 67.1427 13.4213 67.5749 11.1505 67.0522C8.68196 66.5208 5.91104 63.42 4.49795 61.3178V58.3309H0.514568V71.5078H4.49505V68.3223C4.64042 68.5121 4.79743 68.6873 4.97189 68.8362C9.69089 72.9122 17.0587 73.6888 21.3299 68.6172C25.5837 63.7792 24.6562 55.2389 19.2336 51.7177H19.2307Z" fill="#181819"/>
</g>
<defs>
<clipPath id="clip0_11_100">
<rect width="126" height="85" fill="white"/>
</clipPath>
</defs>
</svg>
