<svg width="164" height="28" viewBox="0 0 164 28" fill="none" xmlns="http://www.w3.org/2000/svg">
<g id="Logo" clip-path="url(#clip0_13_193)">
<g id="Group">
<path id="Vector" d="M55.1558 5.75146C56.7661 5.75146 58.099 7.08154 58.099 8.68847V17.254C58.099 18.8923 56.7661 20.191 55.1558 20.191H49.4522C47.8419 20.191 46.5376 18.8923 46.5376 17.254H54.904V8.68847H46.5376V17.254H43.314V8.68847C43.314 7.08154 44.6469 5.75146 46.2573 5.75146H55.1529H55.1558ZM43.3168 26.6872V21.6467H46.5404V26.6872H43.3168Z" fill="white"/>
<path id="Vector_2" d="M61.4314 21.6491V11.8448C61.4314 10.0809 62.8873 8.65951 64.655 8.65951V21.6491H61.4314ZM64.7151 5.75391V8.66237H72.1834V5.75391H64.7151Z" fill="white"/>
<path id="Vector_3" d="M77.8325 8.69091V18.7407H74.6404V8.69091C74.6404 7.08398 75.9418 5.75391 77.5837 5.75391H83.5646C85.2065 5.75391 86.5079 7.08398 86.5079 8.69091H77.8297H77.8325ZM86.5108 8.69091H89.7029V18.7407C89.7029 20.3476 88.4015 21.6491 86.7882 21.6491H80.7443C79.134 21.6491 77.8325 20.3504 77.8325 18.7407H86.5108V8.69091Z" fill="white"/>
<path id="Vector_4" d="M106.353 8.65993H95.9385V12.2477H92.7463V8.65993C92.7463 7.05299 94.0478 5.75146 95.661 5.75146H106.353V8.65993ZM103.999 12.2477C105.609 12.2477 106.914 13.5464 106.914 15.1562V18.7439C106.914 20.3509 105.612 21.6524 103.999 21.6524H93.2755V18.7439H103.719V15.1562H95.9385V12.2477H103.996H103.999Z" fill="white"/>
<path id="Vector_5" d="M113.146 8.69091V18.7407H109.954V8.69091C109.954 7.08398 111.256 5.75391 112.897 5.75391H118.878C120.52 5.75391 121.822 7.08398 121.822 8.69091H113.143H113.146ZM121.824 8.69091H125.017V18.7407C125.017 20.3476 123.715 21.6491 122.105 21.6491H116.061C114.451 21.6491 113.146 20.3504 113.146 18.7407H121.824V8.69091Z" fill="white"/>
<path id="Vector_6" d="M127.774 9.33909V6.2765H138.901V9.33909H133.755V21.6465H130.563V9.33909H127.774ZM138.901 0.0942383V3.18537H133.755V5.69138C131.987 5.69138 130.563 4.26998 130.563 2.50606C130.563 1.17599 131.647 0.0942383 132.98 0.0942383H138.901Z" fill="white"/>
<path id="Vector_7" d="M142.21 21.6493V0H145.402V21.6493H142.21Z" fill="white"/>
<path id="Vector_8" d="M152.55 5.75146V17.2883H160.608C160.608 18.8952 159.306 20.1939 157.665 20.1939H152.301C150.66 20.1939 149.358 18.8952 149.358 17.2883V5.75146H152.55ZM160.608 23.7816V21.6467H163.8V23.873C163.737 25.4514 162.467 26.6872 160.888 26.6872H149.358V23.7816H160.608ZM160.608 5.75146H163.8V17.2883H160.608V5.75146Z" fill="white"/>
</g>
<g id="Group_2">
<path id="Vector_9" d="M36.8295 21.4578H24.0066V23.0933C24.0066 25.8048 21.8042 27.9997 19.0897 27.9997H8.06885V23.7469C8.06885 21.0354 10.2713 18.8405 12.9858 18.8405H24.0066V11.0884L37.3329 19.7567C38.1052 20.259 37.7477 21.4549 36.8267 21.4549L36.8295 21.4578Z" fill="#AFFF2C"/>
<path id="Vector_10" d="M14.0613 4.14139L24.0067 11.0886H9.80227C8.90412 11.0886 8.026 10.8174 7.28517 10.3094L0.56624 5.70551C-0.486364 4.98339 0.0256363 3.33936 1.30421 3.33936H11.5099C12.4223 3.33936 13.3148 3.61907 14.0613 4.14139Z" fill="#AFFF2C"/>
</g>
</g>
<defs>
<clipPath id="clip0_13_193">
<rect width="163.8" height="28" fill="white"/>
</clipPath>
</defs>
</svg>
