<svg width="137" height="35" viewBox="0 0 137 35" fill="none" xmlns="http://www.w3.org/2000/svg">
<g id="Layer_2" clip-path="url(#clip0_13_173)">
<path id="Vector" d="M133.309 3.45111C130.85 1.15037 127.478 0 123.206 0H35.6014L23.7839 15.1274L11.9663 0H0L19.0087 23.3022V35H28.5591V23.3022L40.823 8.22514H61.943V35H71.543V8.22514H96.9564V35H106.556V25.8977H123.199C127.478 25.8977 130.843 24.7473 133.302 22.4466C135.76 20.1458 136.993 16.9751 136.993 12.9273C136.993 8.87942 135.76 5.75904 133.302 3.45111H133.309ZM125.565 16.6228C124.566 17.3562 123.043 17.7229 120.981 17.7229H106.556V8.22514H120.981C123.036 8.22514 124.566 8.57744 125.565 9.27486C126.564 9.97946 127.06 11.1945 127.06 12.9201C127.06 14.6456 126.564 15.8823 125.565 16.6157V16.6228Z" fill="#181819"/>
</g>
<defs>
<clipPath id="clip0_13_173">
<rect width="137" height="35" fill="white"/>
</clipPath>
</defs>
</svg>
